<svg width="271" height="40" viewBox="0 0 271 40" fill="none" xmlns="http://www.w3.org/2000/svg">
<path fill-rule="evenodd" clip-rule="evenodd" d="M9.16364 11.7455C9.16364 17.7222 14.0087 22.5673 19.9855 22.5673L19.9855 18.2036C16.4187 18.2036 13.5273 15.3122 13.5273 11.7455C13.5273 8.17871 16.4187 5.28728 19.9855 5.28728H28.6698H37.3527C38.5577 5.28728 39.5345 4.31045 39.5345 3.10546C39.5345 1.90048 38.5577 0.923645 37.3527 0.923645H19.9855C14.0087 0.923645 9.16364 5.76874 9.16364 11.7455ZM38.8364 29.0255C38.8364 23.0488 33.9913 18.2037 28.0146 18.2036H19.9855V22.5673L28.0145 22.5673C31.5813 22.5673 34.4727 25.4587 34.4727 29.0255C34.4727 32.5922 31.5813 35.4837 28.0145 35.4837H19.3302H10.6473C9.44229 35.4837 8.46545 36.4605 8.46545 37.6655C8.46545 38.8705 9.44229 39.8473 10.6473 39.8473H28.0145C33.9913 39.8473 38.8364 35.0022 38.8364 29.0255Z" fill="white"/>
<path fill-rule="evenodd" clip-rule="evenodd" d="M19.9854 15.4982C17.9128 15.4982 16.2327 13.818 16.2327 11.7455C16.2327 9.67289 17.9128 7.99274 19.9854 7.99274H43.8981C44.5247 7.99274 45.0327 8.50069 45.0327 9.12728C45.0327 9.75387 44.5247 10.2618 43.8981 10.2618H19.9854C19.166 10.2618 18.5018 10.9261 18.5018 11.7455C18.5018 12.5649 19.166 13.2291 19.9854 13.2291H46.0799C46.7065 13.2291 47.2145 13.7371 47.2145 14.3636C47.2145 14.9902 46.7065 15.4982 46.0799 15.4982H19.9854Z" fill="white"/>
<path fill-rule="evenodd" clip-rule="evenodd" d="M28.0146 25.2727C30.0872 25.2727 31.7673 26.9529 31.7673 29.0255C31.7673 31.098 30.0872 32.7782 28.0146 32.7782H4.10188C3.47529 32.7782 2.96733 32.2702 2.96733 31.6437C2.96733 31.0171 3.47529 30.5091 4.10188 30.5091L28.0146 30.5091C28.834 30.5091 29.4982 29.8449 29.4982 29.0255C29.4982 28.2061 28.834 27.5418 28.0146 27.5418L1.92006 27.5418C1.29347 27.5418 0.785517 27.0339 0.785517 26.4073C0.785517 25.7807 1.29347 25.2727 1.92006 25.2727L28.0146 25.2727Z" fill="white"/>
<rect x="0.0872803" y="20.2982" width="9.94909" height="2.26909" rx="1.13455" fill="white"/>
<rect x="47.9127" y="20.4727" width="9.94909" height="2.26909" rx="1.13455" transform="rotate(-180 47.9127 20.4727)" fill="white"/>
<path d="M64.3438 13.3308C64.3438 12.0938 64.6497 10.9675 65.2617 9.95187C65.8867 8.93625 66.7201 8.12896 67.7617 7.53C68.8164 6.91802 69.9753 6.61203 71.2383 6.61203H85.6133V10.7136H71.2383C70.4831 10.7136 69.832 10.9805 69.2852 11.5144C68.7383 12.0482 68.4648 12.6928 68.4648 13.448V15.362C68.4648 16.0521 68.7383 16.6446 69.2852 17.1394C69.832 17.6342 70.4831 17.8816 71.2383 17.8816H80.0859C81.362 17.8816 82.5208 18.1876 83.5625 18.7995C84.6042 19.3985 85.431 20.2123 86.043 21.2409C86.668 22.2566 86.9805 23.3829 86.9805 24.6198V27.6472C86.9805 28.8842 86.668 30.017 86.043 31.0456C85.431 32.0612 84.6042 32.8751 83.5625 33.487C82.5208 34.086 81.362 34.3855 80.0859 34.3855H64.3633V30.2644H80.0859C80.8542 30.2644 81.5052 30.0105 82.0391 29.5027C82.5859 28.9818 82.8594 28.3568 82.8594 27.6277V24.6394C82.8594 23.9102 82.5859 23.2852 82.0391 22.7644C81.5052 22.2435 80.8542 21.9831 80.0859 21.9831H71.2383C69.9753 21.9831 68.8164 21.6902 67.7617 21.1042C66.7201 20.5053 65.8867 19.7045 65.2617 18.7019C64.6497 17.6993 64.3438 16.5925 64.3438 15.3816V13.3308ZM91.6875 18.3308C91.6875 17.1719 92.1107 16.1889 92.957 15.3816C93.8034 14.5612 94.819 14.1511 96.0039 14.1511H104.441C105.522 14.1511 106.499 14.418 107.371 14.9519C108.257 15.4727 108.96 16.1823 109.48 17.0808C110.014 17.9662 110.281 18.9493 110.281 20.03V20.5964C110.281 21.6641 110.014 22.6407 109.48 23.5261C108.96 24.3985 108.257 25.1016 107.371 25.6355C106.499 26.1563 105.522 26.4167 104.441 26.4167H98.1523V22.3152H104.48C104.949 22.3152 105.346 22.1459 105.672 21.8073C106.01 21.4688 106.18 21.0586 106.18 20.5769V20.03C106.18 19.5352 106.01 19.1185 105.672 18.78C105.346 18.4415 104.949 18.2722 104.48 18.2722H95.8086V28.6628C95.8086 29.1055 95.9583 29.4831 96.2578 29.7956C96.5573 30.1081 96.9219 30.2644 97.3516 30.2644H108.855V34.3855H97.3516C96.3099 34.3855 95.3594 34.1316 94.5 33.6237C93.6406 33.1029 92.957 32.4128 92.4492 31.5534C91.9414 30.681 91.6875 29.724 91.6875 28.6823V18.3308ZM114.773 18.2527C114.773 17.1198 115.177 16.1563 115.984 15.362C116.805 14.5547 117.788 14.1511 118.934 14.1511H126.062C127.404 14.1511 128.628 14.4831 129.734 15.1472C130.841 15.7982 131.72 16.6771 132.371 17.7839C133.035 18.8907 133.367 20.1146 133.367 21.4558V34.3855H129.246V21.5144C129.246 20.6029 128.934 19.8282 128.309 19.1902C127.697 18.5521 126.948 18.2331 126.062 18.2331H118.895V34.3855H114.773V18.2527ZM137.859 19.8347C137.859 18.78 138.12 17.823 138.641 16.9636C139.174 16.1042 139.878 15.4206 140.75 14.9128C141.635 14.405 142.612 14.1511 143.68 14.1511H155.555V18.2722H143.68C143.211 18.2722 142.807 18.4284 142.469 18.7409C142.143 19.0404 141.98 19.405 141.98 19.8347V20.323C141.98 20.7657 142.143 21.1433 142.469 21.4558C142.807 21.7683 143.211 21.9245 143.68 21.9245H151.062C152.13 21.9245 153.1 22.1849 153.973 22.7058C154.858 23.2136 155.561 23.8972 156.082 24.7566C156.603 25.6159 156.863 26.573 156.863 27.6277V28.6823C156.863 29.724 156.603 30.681 156.082 31.5534C155.561 32.4128 154.858 33.1029 153.973 33.6237C153.1 34.1316 152.13 34.3855 151.062 34.3855H138.777V30.2644H151.062C151.531 30.2644 151.928 30.1081 152.254 29.7956C152.592 29.4831 152.762 29.1055 152.762 28.6628V27.6472C152.762 27.1915 152.592 26.8073 152.254 26.4948C151.928 26.1823 151.531 26.0261 151.062 26.0261H143.68C142.612 26.0261 141.635 25.7722 140.75 25.2644C139.878 24.7435 139.174 24.0534 138.641 23.1941C138.12 22.3217 137.859 21.3646 137.859 20.323V19.8347ZM161.375 18.3308C161.375 17.1719 161.798 16.1889 162.645 15.3816C163.491 14.5612 164.507 14.1511 165.691 14.1511H174.129C175.21 14.1511 176.186 14.418 177.059 14.9519C177.944 15.4727 178.647 16.1823 179.168 17.0808C179.702 17.9662 179.969 18.9493 179.969 20.03V20.5964C179.969 21.6641 179.702 22.6407 179.168 23.5261C178.647 24.3985 177.944 25.1016 177.059 25.6355C176.186 26.1563 175.21 26.4167 174.129 26.4167H167.84V22.3152H174.168C174.637 22.3152 175.034 22.1459 175.359 21.8073C175.698 21.4688 175.867 21.0586 175.867 20.5769V20.03C175.867 19.5352 175.698 19.1185 175.359 18.78C175.034 18.4415 174.637 18.2722 174.168 18.2722H165.496V28.6628C165.496 29.1055 165.646 29.4831 165.945 29.7956C166.245 30.1081 166.609 30.2644 167.039 30.2644H178.543V34.3855H167.039C165.997 34.3855 165.047 34.1316 164.188 33.6237C163.328 33.1029 162.645 32.4128 162.137 31.5534C161.629 30.681 161.375 29.724 161.375 28.6823V18.3308ZM184.461 13.3308C184.461 12.0938 184.767 10.9675 185.379 9.95187C186.004 8.93625 186.837 8.12896 187.879 7.53C188.934 6.91802 190.092 6.61203 191.355 6.61203H205.73V10.7136H191.355C190.6 10.7136 189.949 10.9805 189.402 11.5144C188.855 12.0482 188.582 12.6928 188.582 13.448V15.362C188.582 16.0521 188.855 16.6446 189.402 17.1394C189.949 17.6342 190.6 17.8816 191.355 17.8816H200.203C201.479 17.8816 202.638 18.1876 203.68 18.7995C204.721 19.3985 205.548 20.2123 206.16 21.2409C206.785 22.2566 207.098 23.3829 207.098 24.6198V27.6472C207.098 28.8842 206.785 30.017 206.16 31.0456C205.548 32.0612 204.721 32.8751 203.68 33.487C202.638 34.086 201.479 34.3855 200.203 34.3855H184.48V30.2644H200.203C200.971 30.2644 201.622 30.0105 202.156 29.5027C202.703 28.9818 202.977 28.3568 202.977 27.6277V24.6394C202.977 23.9102 202.703 23.2852 202.156 22.7644C201.622 22.2435 200.971 21.9831 200.203 21.9831H191.355C190.092 21.9831 188.934 21.6902 187.879 21.1042C186.837 20.5053 186.004 19.7045 185.379 18.7019C184.767 17.6993 184.461 16.5925 184.461 15.3816V13.3308ZM211.805 6.61203H215.926V14.1511H222.293C223.699 14.1511 224.975 14.4831 226.121 15.1472C227.28 15.7982 228.198 16.6771 228.875 17.7839C229.565 18.8777 229.91 20.0951 229.91 21.4362V34.3855H225.789V21.4948C225.789 20.6355 225.438 19.8868 224.734 19.2487C224.044 18.5977 223.23 18.2722 222.293 18.2722H215.926V34.3855H211.805V6.61203ZM234.148 8.64328C234.148 7.94016 234.396 7.3412 234.891 6.84641C235.385 6.35161 235.984 6.10422 236.688 6.10422C237.391 6.10422 237.99 6.35161 238.484 6.84641C238.979 7.3412 239.227 7.94016 239.227 8.64328C239.227 9.34641 238.979 9.94536 238.484 10.4402C237.99 10.9349 237.391 11.1823 236.688 11.1823C235.984 11.1823 235.385 10.9349 234.891 10.4402C234.396 9.94536 234.148 9.34641 234.148 8.64328ZM234.617 14.1511H238.758V34.3855H234.617V14.1511ZM243.445 12.4128C243.445 11.3451 243.706 10.3751 244.227 9.50266C244.76 8.61724 245.464 7.91411 246.336 7.39328C247.221 6.87245 248.198 6.61203 249.266 6.61203H253.777V10.7136H249.266C248.797 10.7136 248.393 10.8829 248.055 11.2214C247.729 11.5469 247.566 11.9441 247.566 12.4128V14.1511H253.855V18.2527H247.566V34.3855H243.445V12.4128ZM256.609 14.1511H259.246V6.61203H263.367V14.1511H269.598V18.2722H263.367V28.6433C263.367 29.086 263.536 29.4701 263.875 29.7956C264.227 30.1081 264.643 30.2644 265.125 30.2644H269.598V34.3855H265.066C263.999 34.3855 263.022 34.1316 262.137 33.6237C261.264 33.1029 260.561 32.4128 260.027 31.5534C259.507 30.681 259.246 29.7175 259.246 28.6628V18.2722H256.609V14.1511Z" fill="white"/>
</svg>
