<svg width="271" height="39" viewBox="0 0 271 39" fill="none" xmlns="http://www.w3.org/2000/svg">
<path fill-rule="evenodd" clip-rule="evenodd" d="M9.16364 10.8218C9.16364 16.7985 14.0087 21.6436 19.9855 21.6436L19.9855 17.28C16.4187 17.28 13.5273 14.3886 13.5273 10.8218C13.5273 7.25506 16.4187 4.36364 19.9855 4.36364H28.6698H37.3527C38.5577 4.36364 39.5345 3.3868 39.5345 2.18182C39.5345 0.976833 38.5577 0 37.3527 0H19.9855C14.0087 0 9.16364 4.84509 9.16364 10.8218ZM38.8364 28.1018C38.8364 22.1251 33.9913 17.28 28.0146 17.28H19.9855V21.6436L28.0145 21.6436C31.5813 21.6436 34.4727 24.5351 34.4727 28.1018C34.4727 31.6686 31.5813 34.56 28.0145 34.56H19.3302H10.6473C9.44229 34.56 8.46545 35.5368 8.46545 36.7418C8.46545 37.9468 9.44229 38.9236 10.6473 38.9236H28.0145C33.9913 38.9236 38.8364 34.0786 38.8364 28.1018Z" fill="black"/>
<path fill-rule="evenodd" clip-rule="evenodd" d="M19.9854 14.5745C17.9128 14.5745 16.2327 12.8944 16.2327 10.8218C16.2327 8.74925 17.9128 7.06909 19.9854 7.06909H43.8981C44.5247 7.06909 45.0327 7.57704 45.0327 8.20364C45.0327 8.83023 44.5247 9.33818 43.8981 9.33818H19.9854C19.166 9.33818 18.5018 10.0024 18.5018 10.8218C18.5018 11.6412 19.166 12.3055 19.9854 12.3055H46.0799C46.7065 12.3055 47.2145 12.8134 47.2145 13.44C47.2145 14.0666 46.7065 14.5745 46.0799 14.5745H19.9854Z" fill="black"/>
<path fill-rule="evenodd" clip-rule="evenodd" d="M28.0146 24.3491C30.0872 24.3491 31.7673 26.0293 31.7673 28.1018C31.7673 30.1744 30.0872 31.8546 28.0146 31.8546L4.10188 31.8546C3.47529 31.8546 2.96733 31.3466 2.96733 30.72C2.96733 30.0934 3.47529 29.5855 4.10188 29.5855L28.0146 29.5855C28.834 29.5855 29.4982 28.9212 29.4982 28.1018C29.4982 27.2824 28.834 26.6182 28.0146 26.6182L1.92006 26.6182C1.29347 26.6182 0.785517 26.1102 0.785517 25.4836C0.785517 24.8571 1.29347 24.3491 1.92006 24.3491L28.0146 24.3491Z" fill="black"/>
<rect x="0.0872803" y="19.3745" width="9.94909" height="2.26909" rx="1.13455" fill="black"/>
<rect x="47.9127" y="19.5491" width="9.94909" height="2.26909" rx="1.13455" transform="rotate(-180 47.9127 19.5491)" fill="black"/>
<path d="M64.3438 12.4071C64.3438 11.1702 64.6497 10.0439 65.2617 9.02823C65.8867 8.0126 66.7201 7.20531 67.7617 6.60635C68.8164 5.99437 69.9753 5.68839 71.2383 5.68839H85.6133V9.78995H71.2383C70.4831 9.78995 69.832 10.0569 69.2852 10.5907C68.7383 11.1246 68.4648 11.7691 68.4648 12.5243V14.4384C68.4648 15.1285 68.7383 15.7209 69.2852 16.2157C69.832 16.7105 70.4831 16.9579 71.2383 16.9579H80.0859C81.362 16.9579 82.5208 17.2639 83.5625 17.8759C84.6042 18.4748 85.431 19.2886 86.043 20.3173C86.668 21.3329 86.9805 22.4592 86.9805 23.6962V26.7235C86.9805 27.9605 86.668 29.0933 86.043 30.122C85.431 31.1376 84.6042 31.9514 83.5625 32.5634C82.5208 33.1623 81.362 33.4618 80.0859 33.4618H64.3633V29.3407H80.0859C80.8542 29.3407 81.5052 29.0868 82.0391 28.579C82.5859 28.0582 82.8594 27.4332 82.8594 26.704V23.7157C82.8594 22.9866 82.5859 22.3616 82.0391 21.8407C81.5052 21.3199 80.8542 21.0595 80.0859 21.0595H71.2383C69.9753 21.0595 68.8164 20.7665 67.7617 20.1806C66.7201 19.5816 65.8867 18.7808 65.2617 17.7782C64.6497 16.7756 64.3438 15.6689 64.3438 14.4579V12.4071ZM91.6875 17.4071C91.6875 16.2483 92.1107 15.2652 92.957 14.4579C93.8034 13.6376 94.819 13.2274 96.0039 13.2274H104.441C105.522 13.2274 106.499 13.4944 107.371 14.0282C108.257 14.5491 108.96 15.2587 109.48 16.1571C110.014 17.0426 110.281 18.0256 110.281 19.1064V19.6728C110.281 20.7405 110.014 21.717 109.48 22.6024C108.96 23.4748 108.257 24.178 107.371 24.7118C106.499 25.2327 105.522 25.4931 104.441 25.4931H98.1523V21.3915H104.48C104.949 21.3915 105.346 21.2222 105.672 20.8837C106.01 20.5452 106.18 20.135 106.18 19.6532V19.1064C106.18 18.6116 106.01 18.1949 105.672 17.8564C105.346 17.5178 104.949 17.3485 104.48 17.3485H95.8086V27.7392C95.8086 28.1819 95.9583 28.5595 96.2578 28.872C96.5573 29.1845 96.9219 29.3407 97.3516 29.3407H108.855V33.4618H97.3516C96.3099 33.4618 95.3594 33.2079 94.5 32.7001C93.6406 32.1793 92.957 31.4892 92.4492 30.6298C91.9414 29.7574 91.6875 28.8004 91.6875 27.7587V17.4071ZM114.773 17.329C114.773 16.1962 115.177 15.2327 115.984 14.4384C116.805 13.6311 117.788 13.2274 118.934 13.2274H126.062C127.404 13.2274 128.628 13.5595 129.734 14.2235C130.841 14.8746 131.72 15.7535 132.371 16.8603C133.035 17.967 133.367 19.191 133.367 20.5321V33.4618H129.246V20.5907C129.246 19.6793 128.934 18.9045 128.309 18.2665C127.697 17.6285 126.948 17.3095 126.062 17.3095H118.895V33.4618H114.773V17.329ZM137.859 18.911C137.859 17.8564 138.12 16.8993 138.641 16.0399C139.174 15.1806 139.878 14.497 140.75 13.9892C141.635 13.4814 142.612 13.2274 143.68 13.2274H155.555V17.3485H143.68C143.211 17.3485 142.807 17.5048 142.469 17.8173C142.143 18.1168 141.98 18.4814 141.98 18.911V19.3993C141.98 19.842 142.143 20.2196 142.469 20.5321C142.807 20.8446 143.211 21.0009 143.68 21.0009H151.062C152.13 21.0009 153.1 21.2613 153.973 21.7821C154.858 22.2899 155.561 22.9735 156.082 23.8329C156.603 24.6923 156.863 25.6493 156.863 26.704V27.7587C156.863 28.8004 156.603 29.7574 156.082 30.6298C155.561 31.4892 154.858 32.1793 153.973 32.7001C153.1 33.2079 152.13 33.4618 151.062 33.4618H138.777V29.3407H151.062C151.531 29.3407 151.928 29.1845 152.254 28.872C152.592 28.5595 152.762 28.1819 152.762 27.7392V26.7235C152.762 26.2678 152.592 25.8837 152.254 25.5712C151.928 25.2587 151.531 25.1024 151.062 25.1024H143.68C142.612 25.1024 141.635 24.8485 140.75 24.3407C139.878 23.8199 139.174 23.1298 138.641 22.2704C138.12 21.398 137.859 20.441 137.859 19.3993V18.911ZM161.375 17.4071C161.375 16.2483 161.798 15.2652 162.645 14.4579C163.491 13.6376 164.507 13.2274 165.691 13.2274H174.129C175.21 13.2274 176.186 13.4944 177.059 14.0282C177.944 14.5491 178.647 15.2587 179.168 16.1571C179.702 17.0426 179.969 18.0256 179.969 19.1064V19.6728C179.969 20.7405 179.702 21.717 179.168 22.6024C178.647 23.4748 177.944 24.178 177.059 24.7118C176.186 25.2327 175.21 25.4931 174.129 25.4931H167.84V21.3915H174.168C174.637 21.3915 175.034 21.2222 175.359 20.8837C175.698 20.5452 175.867 20.135 175.867 19.6532V19.1064C175.867 18.6116 175.698 18.1949 175.359 17.8564C175.034 17.5178 174.637 17.3485 174.168 17.3485H165.496V27.7392C165.496 28.1819 165.646 28.5595 165.945 28.872C166.245 29.1845 166.609 29.3407 167.039 29.3407H178.543V33.4618H167.039C165.997 33.4618 165.047 33.2079 164.188 32.7001C163.328 32.1793 162.645 31.4892 162.137 30.6298C161.629 29.7574 161.375 28.8004 161.375 27.7587V17.4071ZM184.461 12.4071C184.461 11.1702 184.767 10.0439 185.379 9.02823C186.004 8.0126 186.837 7.20531 187.879 6.60635C188.934 5.99437 190.092 5.68839 191.355 5.68839H205.73V9.78995H191.355C190.6 9.78995 189.949 10.0569 189.402 10.5907C188.855 11.1246 188.582 11.7691 188.582 12.5243V14.4384C188.582 15.1285 188.855 15.7209 189.402 16.2157C189.949 16.7105 190.6 16.9579 191.355 16.9579H200.203C201.479 16.9579 202.638 17.2639 203.68 17.8759C204.721 18.4748 205.548 19.2886 206.16 20.3173C206.785 21.3329 207.098 22.4592 207.098 23.6962V26.7235C207.098 27.9605 206.785 29.0933 206.16 30.122C205.548 31.1376 204.721 31.9514 203.68 32.5634C202.638 33.1623 201.479 33.4618 200.203 33.4618H184.48V29.3407H200.203C200.971 29.3407 201.622 29.0868 202.156 28.579C202.703 28.0582 202.977 27.4332 202.977 26.704V23.7157C202.977 22.9866 202.703 22.3616 202.156 21.8407C201.622 21.3199 200.971 21.0595 200.203 21.0595H191.355C190.092 21.0595 188.934 20.7665 187.879 20.1806C186.837 19.5816 186.004 18.7808 185.379 17.7782C184.767 16.7756 184.461 15.6689 184.461 14.4579V12.4071ZM211.805 5.68839H215.926V13.2274H222.293C223.699 13.2274 224.975 13.5595 226.121 14.2235C227.28 14.8746 228.198 15.7535 228.875 16.8603C229.565 17.954 229.91 19.1715 229.91 20.5126V33.4618H225.789V20.5712C225.789 19.7118 225.438 18.9631 224.734 18.3251C224.044 17.6741 223.23 17.3485 222.293 17.3485H215.926V33.4618H211.805V5.68839ZM234.148 7.71964C234.148 7.01651 234.396 6.41755 234.891 5.92276C235.385 5.42797 235.984 5.18057 236.688 5.18057C237.391 5.18057 237.99 5.42797 238.484 5.92276C238.979 6.41755 239.227 7.01651 239.227 7.71964C239.227 8.42276 238.979 9.02172 238.484 9.51651C237.99 10.0113 237.391 10.2587 236.688 10.2587C235.984 10.2587 235.385 10.0113 234.891 9.51651C234.396 9.02172 234.148 8.42276 234.148 7.71964ZM234.617 13.2274H238.758V33.4618H234.617V13.2274ZM243.445 11.4892C243.445 10.4215 243.706 9.45141 244.227 8.57901C244.76 7.69359 245.464 6.99047 246.336 6.46964C247.221 5.9488 248.198 5.68839 249.266 5.68839H253.777V9.78995H249.266C248.797 9.78995 248.393 9.95922 248.055 10.2978C247.729 10.6233 247.566 11.0204 247.566 11.4892V13.2274H253.855V17.329H247.566V33.4618H243.445V11.4892ZM256.609 13.2274H259.246V5.68839H263.367V13.2274H269.598V17.3485H263.367V27.7196C263.367 28.1623 263.536 28.5465 263.875 28.872C264.227 29.1845 264.643 29.3407 265.125 29.3407H269.598V33.4618H265.066C263.999 33.4618 263.022 33.2079 262.137 32.7001C261.264 32.1793 260.561 31.4892 260.027 30.6298C259.507 29.7574 259.246 28.7939 259.246 27.7392V17.3485H256.609V13.2274Z" fill="black"/>
</svg>
