<svg width="287" height="64" viewBox="0 0 287 64" fill="none" xmlns="http://www.w3.org/2000/svg">
<rect width="64" height="64" rx="16" fill="white"/>
<path fill-rule="evenodd" clip-rule="evenodd" d="M17.963 23.8409C17.963 29.483 22.5369 34.0568 28.179 34.0568L28.179 29.9375C24.8119 29.9375 22.0824 27.208 22.0824 23.8409C22.0824 20.4739 24.8119 17.7443 28.179 17.7443H36.3771H44.5738C45.7114 17.7443 46.6335 16.8222 46.6335 15.6847C46.6335 14.5471 45.7114 13.625 44.5738 13.625H28.179C22.5369 13.625 17.963 18.1988 17.963 23.8409ZM45.9744 40.1534C45.9744 34.5113 41.4006 29.9375 35.7585 29.9375H28.179V34.0568L35.7585 34.0568C39.1256 34.0568 41.8551 36.7864 41.8551 40.1534C41.8551 43.5205 39.1256 46.25 35.7585 46.25H27.5604H19.3636C18.2261 46.25 17.304 47.1721 17.304 48.3097C17.304 49.4472 18.2261 50.3693 19.3636 50.3693H35.7585C41.4006 50.3693 45.9744 45.7955 45.9744 40.1534Z" fill="black"/>
<path fill-rule="evenodd" clip-rule="evenodd" d="M26.7784 23.8409C26.7784 24.6144 27.4055 25.2415 28.179 25.2415H52.8125C53.404 25.2415 53.8835 25.721 53.8835 26.3125C53.8835 26.904 53.404 27.3835 52.8125 27.3835H28.179C26.2224 27.3835 24.6364 25.7974 24.6364 23.8409C24.6364 21.8844 26.2224 20.2983 28.179 20.2983H50.7528C51.3443 20.2983 51.8239 20.7778 51.8239 21.3693C51.8239 21.9608 51.3443 22.4403 50.7528 22.4403H28.179C27.4055 22.4403 26.7784 23.0674 26.7784 23.8409Z" fill="black"/>
<path fill-rule="evenodd" clip-rule="evenodd" d="M39.3011 40.1534C39.3011 38.1969 37.7151 36.6108 35.7585 36.6108H11.125C10.5335 36.6108 10.054 37.0903 10.054 37.6818C10.054 38.2733 10.5335 38.7528 11.125 38.7528H35.7585C36.532 38.7528 37.1591 39.3799 37.1591 40.1534C37.1591 40.9269 36.532 41.554 35.7585 41.554H13.1847C12.5932 41.554 12.1136 42.0335 12.1136 42.625C12.1136 43.2165 12.5932 43.696 13.1847 43.696L35.7585 43.696C37.7151 43.696 39.3011 42.1099 39.3011 40.1534Z" fill="black"/>
<rect x="9.3949" y="31.9148" width="9.39205" height="2.14205" rx="1.07102" fill="black"/>
<rect x="54.5426" y="32.0795" width="9.39204" height="2.14205" rx="1.07102" transform="rotate(-180 54.5426 32.0795)" fill="black"/>
<path d="M80.3438 24.9453C80.3438 23.7083 80.6497 22.582 81.2617 21.5664C81.8867 20.5508 82.7201 19.7435 83.7617 19.1445C84.8164 18.5326 85.9753 18.2266 87.2383 18.2266H101.613V22.3281H87.2383C86.4831 22.3281 85.832 22.5951 85.2852 23.1289C84.7383 23.6628 84.4648 24.3073 84.4648 25.0625V26.9766C84.4648 27.6667 84.7383 28.2591 85.2852 28.7539C85.832 29.2487 86.4831 29.4961 87.2383 29.4961H96.0859C97.362 29.4961 98.5208 29.8021 99.5625 30.4141C100.604 31.013 101.431 31.8268 102.043 32.8555C102.668 33.8711 102.98 34.9974 102.98 36.2344V39.2617C102.98 40.4987 102.668 41.6315 102.043 42.6602C101.431 43.6758 100.604 44.4896 99.5625 45.1016C98.5208 45.7005 97.362 46 96.0859 46H80.3633V41.8789H96.0859C96.8542 41.8789 97.5052 41.625 98.0391 41.1172C98.5859 40.5964 98.8594 39.9714 98.8594 39.2422V36.2539C98.8594 35.5247 98.5859 34.8997 98.0391 34.3789C97.5052 33.8581 96.8542 33.5977 96.0859 33.5977H87.2383C85.9753 33.5977 84.8164 33.3047 83.7617 32.7188C82.7201 32.1198 81.8867 31.319 81.2617 30.3164C80.6497 29.3138 80.3438 28.207 80.3438 26.9961V24.9453ZM107.688 29.9453C107.688 28.7865 108.111 27.8034 108.957 26.9961C109.803 26.1758 110.819 25.7656 112.004 25.7656H120.441C121.522 25.7656 122.499 26.0326 123.371 26.5664C124.257 27.0872 124.96 27.7969 125.48 28.6953C126.014 29.5807 126.281 30.5638 126.281 31.6445V32.2109C126.281 33.2786 126.014 34.2552 125.48 35.1406C124.96 36.013 124.257 36.7161 123.371 37.25C122.499 37.7708 121.522 38.0312 120.441 38.0312H114.152V33.9297H120.48C120.949 33.9297 121.346 33.7604 121.672 33.4219C122.01 33.0833 122.18 32.6732 122.18 32.1914V31.6445C122.18 31.1497 122.01 30.7331 121.672 30.3945C121.346 30.056 120.949 29.8867 120.48 29.8867H111.809V40.2773C111.809 40.7201 111.958 41.0977 112.258 41.4102C112.557 41.7227 112.922 41.8789 113.352 41.8789H124.855V46H113.352C112.31 46 111.359 45.7461 110.5 45.2383C109.641 44.7174 108.957 44.0273 108.449 43.168C107.941 42.2956 107.688 41.3385 107.688 40.2969V29.9453ZM130.773 29.8672C130.773 28.7344 131.177 27.7708 131.984 26.9766C132.805 26.1693 133.788 25.7656 134.934 25.7656H142.062C143.404 25.7656 144.628 26.0977 145.734 26.7617C146.841 27.4128 147.72 28.2917 148.371 29.3984C149.035 30.5052 149.367 31.7292 149.367 33.0703V46H145.246V33.1289C145.246 32.2174 144.934 31.4427 144.309 30.8047C143.697 30.1667 142.948 29.8477 142.062 29.8477H134.895V46H130.773V29.8672ZM153.859 31.4492C153.859 30.3945 154.12 29.4375 154.641 28.5781C155.174 27.7188 155.878 27.0352 156.75 26.5273C157.635 26.0195 158.612 25.7656 159.68 25.7656H171.555V29.8867H159.68C159.211 29.8867 158.807 30.043 158.469 30.3555C158.143 30.6549 157.98 31.0195 157.98 31.4492V31.9375C157.98 32.3802 158.143 32.7578 158.469 33.0703C158.807 33.3828 159.211 33.5391 159.68 33.5391H167.062C168.13 33.5391 169.1 33.7995 169.973 34.3203C170.858 34.8281 171.561 35.5117 172.082 36.3711C172.603 37.2305 172.863 38.1875 172.863 39.2422V40.2969C172.863 41.3385 172.603 42.2956 172.082 43.168C171.561 44.0273 170.858 44.7174 169.973 45.2383C169.1 45.7461 168.13 46 167.062 46H154.777V41.8789H167.062C167.531 41.8789 167.928 41.7227 168.254 41.4102C168.592 41.0977 168.762 40.7201 168.762 40.2773V39.2617C168.762 38.806 168.592 38.4219 168.254 38.1094C167.928 37.7969 167.531 37.6406 167.062 37.6406H159.68C158.612 37.6406 157.635 37.3867 156.75 36.8789C155.878 36.3581 155.174 35.668 154.641 34.8086C154.12 33.9362 153.859 32.9792 153.859 31.9375V31.4492ZM177.375 29.9453C177.375 28.7865 177.798 27.8034 178.645 26.9961C179.491 26.1758 180.507 25.7656 181.691 25.7656H190.129C191.21 25.7656 192.186 26.0326 193.059 26.5664C193.944 27.0872 194.647 27.7969 195.168 28.6953C195.702 29.5807 195.969 30.5638 195.969 31.6445V32.2109C195.969 33.2786 195.702 34.2552 195.168 35.1406C194.647 36.013 193.944 36.7161 193.059 37.25C192.186 37.7708 191.21 38.0312 190.129 38.0312H183.84V33.9297H190.168C190.637 33.9297 191.034 33.7604 191.359 33.4219C191.698 33.0833 191.867 32.6732 191.867 32.1914V31.6445C191.867 31.1497 191.698 30.7331 191.359 30.3945C191.034 30.056 190.637 29.8867 190.168 29.8867H181.496V40.2773C181.496 40.7201 181.646 41.0977 181.945 41.4102C182.245 41.7227 182.609 41.8789 183.039 41.8789H194.543V46H183.039C181.997 46 181.047 45.7461 180.188 45.2383C179.328 44.7174 178.645 44.0273 178.137 43.168C177.629 42.2956 177.375 41.3385 177.375 40.2969V29.9453ZM200.461 24.9453C200.461 23.7083 200.767 22.582 201.379 21.5664C202.004 20.5508 202.837 19.7435 203.879 19.1445C204.934 18.5326 206.092 18.2266 207.355 18.2266H221.73V22.3281H207.355C206.6 22.3281 205.949 22.5951 205.402 23.1289C204.855 23.6628 204.582 24.3073 204.582 25.0625V26.9766C204.582 27.6667 204.855 28.2591 205.402 28.7539C205.949 29.2487 206.6 29.4961 207.355 29.4961H216.203C217.479 29.4961 218.638 29.8021 219.68 30.4141C220.721 31.013 221.548 31.8268 222.16 32.8555C222.785 33.8711 223.098 34.9974 223.098 36.2344V39.2617C223.098 40.4987 222.785 41.6315 222.16 42.6602C221.548 43.6758 220.721 44.4896 219.68 45.1016C218.638 45.7005 217.479 46 216.203 46H200.48V41.8789H216.203C216.971 41.8789 217.622 41.625 218.156 41.1172C218.703 40.5964 218.977 39.9714 218.977 39.2422V36.2539C218.977 35.5247 218.703 34.8997 218.156 34.3789C217.622 33.8581 216.971 33.5977 216.203 33.5977H207.355C206.092 33.5977 204.934 33.3047 203.879 32.7188C202.837 32.1198 202.004 31.319 201.379 30.3164C200.767 29.3138 200.461 28.207 200.461 26.9961V24.9453ZM227.805 18.2266H231.926V25.7656H238.293C239.699 25.7656 240.975 26.0977 242.121 26.7617C243.28 27.4128 244.198 28.2917 244.875 29.3984C245.565 30.4922 245.91 31.7096 245.91 33.0508V46H241.789V33.1094C241.789 32.25 241.438 31.5013 240.734 30.8633C240.044 30.2122 239.23 29.8867 238.293 29.8867H231.926V46H227.805V18.2266ZM250.148 20.2578C250.148 19.5547 250.396 18.9557 250.891 18.4609C251.385 17.9661 251.984 17.7188 252.688 17.7188C253.391 17.7188 253.99 17.9661 254.484 18.4609C254.979 18.9557 255.227 19.5547 255.227 20.2578C255.227 20.9609 254.979 21.5599 254.484 22.0547C253.99 22.5495 253.391 22.7969 252.688 22.7969C251.984 22.7969 251.385 22.5495 250.891 22.0547C250.396 21.5599 250.148 20.9609 250.148 20.2578ZM250.617 25.7656H254.758V46H250.617V25.7656ZM259.445 24.0273C259.445 22.9596 259.706 21.9896 260.227 21.1172C260.76 20.2318 261.464 19.5286 262.336 19.0078C263.221 18.487 264.198 18.2266 265.266 18.2266H269.777V22.3281H265.266C264.797 22.3281 264.393 22.4974 264.055 22.8359C263.729 23.1615 263.566 23.5586 263.566 24.0273V25.7656H269.855V29.8672H263.566V46H259.445V24.0273ZM272.609 25.7656H275.246V18.2266H279.367V25.7656H285.598V29.8867H279.367V40.2578C279.367 40.7005 279.536 41.0846 279.875 41.4102C280.227 41.7227 280.643 41.8789 281.125 41.8789H285.598V46H281.066C279.999 46 279.022 45.7461 278.137 45.2383C277.264 44.7174 276.561 44.0273 276.027 43.168C275.507 42.2956 275.246 41.332 275.246 40.2773V29.8867H272.609V25.7656Z" fill="white"/>
</svg>
