<svg width="48" height="40" viewBox="0 0 48 40" fill="none" xmlns="http://www.w3.org/2000/svg">
<path fill-rule="evenodd" clip-rule="evenodd" d="M9.16364 11.7455C9.16364 17.7222 14.0087 22.5673 19.9855 22.5673L19.9855 18.2036C16.4187 18.2036 13.5273 15.3122 13.5273 11.7455C13.5273 8.17871 16.4187 5.28728 19.9855 5.28728H28.6698H37.3527C38.5577 5.28728 39.5345 4.31045 39.5345 3.10546C39.5345 1.90048 38.5577 0.923645 37.3527 0.923645H19.9855C14.0087 0.923645 9.16364 5.76874 9.16364 11.7455ZM38.8364 29.0255C38.8364 23.0488 33.9913 18.2037 28.0146 18.2036H19.9855V22.5673L28.0145 22.5673C31.5813 22.5673 34.4727 25.4587 34.4727 29.0255C34.4727 32.5922 31.5813 35.4837 28.0145 35.4837H19.3302H10.6473C9.44229 35.4837 8.46545 36.4605 8.46545 37.6655C8.46545 38.8705 9.44229 39.8473 10.6473 39.8473H28.0145C33.9913 39.8473 38.8364 35.0022 38.8364 29.0255Z" fill="white"/>
<path fill-rule="evenodd" clip-rule="evenodd" d="M19.9855 15.4982C17.9129 15.4982 16.2327 13.818 16.2327 11.7455C16.2327 9.67289 17.9129 7.99274 19.9855 7.99274H43.8982C44.5248 7.99274 45.0327 8.50069 45.0327 9.12728C45.0327 9.75387 44.5248 10.2618 43.8982 10.2618H19.9855C19.1661 10.2618 18.5018 10.9261 18.5018 11.7455C18.5018 12.5649 19.1661 13.2291 19.9855 13.2291H46.08C46.7066 13.2291 47.2145 13.7371 47.2145 14.3636C47.2145 14.9902 46.7066 15.4982 46.08 15.4982H19.9855Z" fill="white"/>
<path fill-rule="evenodd" clip-rule="evenodd" d="M28.0145 25.2727C30.0871 25.2727 31.7673 26.9529 31.7673 29.0255C31.7673 31.098 30.0871 32.7782 28.0145 32.7782H4.10182C3.47523 32.7782 2.96727 32.2702 2.96727 31.6437C2.96727 31.0171 3.47523 30.5091 4.10182 30.5091L28.0145 30.5091C28.8339 30.5091 29.4982 29.8449 29.4982 29.0255C29.4982 28.2061 28.8339 27.5418 28.0145 27.5418L1.92 27.5418C1.29341 27.5418 0.785456 27.0339 0.785456 26.4073C0.785456 25.7807 1.29341 25.2727 1.92 25.2727L28.0145 25.2727Z" fill="white"/>
<rect x="0.0872803" y="20.2982" width="9.94909" height="2.26909" rx="1.13455" fill="white"/>
<rect x="47.9127" y="20.4727" width="9.94909" height="2.26909" rx="1.13455" transform="rotate(-180 47.9127 20.4727)" fill="white"/>
</svg>
