<svg width="48" height="39" viewBox="0 0 48 39" fill="none" xmlns="http://www.w3.org/2000/svg">
<path fill-rule="evenodd" clip-rule="evenodd" d="M9.16364 10.8218C9.16364 16.7985 14.0087 21.6436 19.9855 21.6436L19.9855 17.28C16.4187 17.28 13.5273 14.3886 13.5273 10.8218C13.5273 7.25506 16.4187 4.36364 19.9855 4.36364H28.6698H37.3527C38.5577 4.36364 39.5345 3.3868 39.5345 2.18182C39.5345 0.976833 38.5577 0 37.3527 0H19.9855C14.0087 0 9.16364 4.84509 9.16364 10.8218ZM38.8364 28.1018C38.8364 22.1251 33.9913 17.28 28.0146 17.28H19.9855V21.6436L28.0145 21.6436C31.5813 21.6436 34.4727 24.5351 34.4727 28.1018C34.4727 31.6686 31.5813 34.56 28.0145 34.56H19.3302H10.6473C9.44229 34.56 8.46545 35.5368 8.46545 36.7418C8.46545 37.9468 9.44229 38.9236 10.6473 38.9236H28.0145C33.9913 38.9236 38.8364 34.0786 38.8364 28.1018Z" fill="black"/>
<path fill-rule="evenodd" clip-rule="evenodd" d="M19.9855 14.5745C17.9129 14.5745 16.2327 12.8944 16.2327 10.8218C16.2327 8.74925 17.9129 7.06909 19.9855 7.06909H43.8982C44.5248 7.06909 45.0327 7.57704 45.0327 8.20364C45.0327 8.83023 44.5248 9.33818 43.8982 9.33818H19.9855C19.1661 9.33818 18.5018 10.0024 18.5018 10.8218C18.5018 11.6412 19.1661 12.3055 19.9855 12.3055H46.08C46.7066 12.3055 47.2145 12.8134 47.2145 13.44C47.2145 14.0666 46.7066 14.5745 46.08 14.5745H19.9855Z" fill="black"/>
<path fill-rule="evenodd" clip-rule="evenodd" d="M28.0145 24.3491C30.0871 24.3491 31.7673 26.0293 31.7673 28.1018C31.7673 30.1744 30.0871 31.8546 28.0145 31.8546L4.10182 31.8546C3.47523 31.8546 2.96727 31.3466 2.96727 30.72C2.96727 30.0934 3.47523 29.5855 4.10182 29.5855L28.0145 29.5855C28.8339 29.5855 29.4982 28.9212 29.4982 28.1018C29.4982 27.2824 28.8339 26.6182 28.0145 26.6182L1.92 26.6182C1.29341 26.6182 0.785456 26.1102 0.785456 25.4836C0.785456 24.8571 1.29341 24.3491 1.92 24.3491L28.0145 24.3491Z" fill="black"/>
<rect x="0.0872803" y="19.3745" width="9.94909" height="2.26909" rx="1.13455" fill="black"/>
<rect x="47.9127" y="19.5491" width="9.94909" height="2.26909" rx="1.13455" transform="rotate(-180 47.9127 19.5491)" fill="black"/>
</svg>
