<svg width="209" height="29" viewBox="0 0 209 29" fill="none" xmlns="http://www.w3.org/2000/svg">
<path d="M2.34375 7.94531C2.34375 6.70833 2.64974 5.58203 3.26172 4.56641C3.88672 3.55078 4.72005 2.74349 5.76172 2.14453C6.81641 1.53255 7.97526 1.22656 9.23828 1.22656H23.6133V5.32812H9.23828C8.48307 5.32812 7.83203 5.59505 7.28516 6.12891C6.73828 6.66276 6.46484 7.30729 6.46484 8.0625V9.97656C6.46484 10.6667 6.73828 11.2591 7.28516 11.7539C7.83203 12.2487 8.48307 12.4961 9.23828 12.4961H18.0859C19.362 12.4961 20.5208 12.8021 21.5625 13.4141C22.6042 14.013 23.431 14.8268 24.043 15.8555C24.668 16.8711 24.9805 17.9974 24.9805 19.2344V22.2617C24.9805 23.4987 24.668 24.6315 24.043 25.6602C23.431 26.6758 22.6042 27.4896 21.5625 28.1016C20.5208 28.7005 19.362 29 18.0859 29H2.36328V24.8789H18.0859C18.8542 24.8789 19.5052 24.625 20.0391 24.1172C20.5859 23.5964 20.8594 22.9714 20.8594 22.2422V19.2539C20.8594 18.5247 20.5859 17.8997 20.0391 17.3789C19.5052 16.8581 18.8542 16.5977 18.0859 16.5977H9.23828C7.97526 16.5977 6.81641 16.3047 5.76172 15.7188C4.72005 15.1198 3.88672 14.319 3.26172 13.3164C2.64974 12.3138 2.34375 11.207 2.34375 9.99609V7.94531ZM29.6875 12.9453C29.6875 11.7865 30.1107 10.8034 30.957 9.99609C31.8034 9.17578 32.819 8.76562 34.0039 8.76562H42.4414C43.5221 8.76562 44.4987 9.03255 45.3711 9.56641C46.2565 10.0872 46.9596 10.7969 47.4805 11.6953C48.0143 12.5807 48.2812 13.5638 48.2812 14.6445V15.2109C48.2812 16.2786 48.0143 17.2552 47.4805 18.1406C46.9596 19.013 46.2565 19.7161 45.3711 20.25C44.4987 20.7708 43.5221 21.0312 42.4414 21.0312H36.1523V16.9297H42.4805C42.9492 16.9297 43.3464 16.7604 43.6719 16.4219C44.0104 16.0833 44.1797 15.6732 44.1797 15.1914V14.6445C44.1797 14.1497 44.0104 13.7331 43.6719 13.3945C43.3464 13.056 42.9492 12.8867 42.4805 12.8867H33.8086V23.2773C33.8086 23.7201 33.9583 24.0977 34.2578 24.4102C34.5573 24.7227 34.9219 24.8789 35.3516 24.8789H46.8555V29H35.3516C34.3099 29 33.3594 28.7461 32.5 28.2383C31.6406 27.7174 30.957 27.0273 30.4492 26.168C29.9414 25.2956 29.6875 24.3385 29.6875 23.2969V12.9453ZM52.7734 12.8672C52.7734 11.7344 53.1771 10.7708 53.9844 9.97656C54.8047 9.16927 55.7878 8.76562 56.9336 8.76562H64.0625C65.4036 8.76562 66.6276 9.09766 67.7344 9.76172C68.8411 10.4128 69.7201 11.2917 70.3711 12.3984C71.0352 13.5052 71.3672 14.7292 71.3672 16.0703V29H67.2461V16.1289C67.2461 15.2174 66.9336 14.4427 66.3086 13.8047C65.6966 13.1667 64.9479 12.8477 64.0625 12.8477H56.8945V29H52.7734V12.8672ZM75.8594 14.4492C75.8594 13.3945 76.1198 12.4375 76.6406 11.5781C77.1745 10.7188 77.8776 10.0352 78.75 9.52734C79.6354 9.01953 80.612 8.76562 81.6797 8.76562H93.5547V12.8867H81.6797C81.2109 12.8867 80.8073 13.043 80.4688 13.3555C80.1432 13.6549 79.9805 14.0195 79.9805 14.4492V14.9375C79.9805 15.3802 80.1432 15.7578 80.4688 16.0703C80.8073 16.3828 81.2109 16.5391 81.6797 16.5391H89.0625C90.1302 16.5391 91.1003 16.7995 91.9727 17.3203C92.8581 17.8281 93.5612 18.5117 94.082 19.3711C94.6029 20.2305 94.8633 21.1875 94.8633 22.2422V23.2969C94.8633 24.3385 94.6029 25.2956 94.082 26.168C93.5612 27.0273 92.8581 27.7174 91.9727 28.2383C91.1003 28.7461 90.1302 29 89.0625 29H76.7773V24.8789H89.0625C89.5312 24.8789 89.9284 24.7227 90.2539 24.4102C90.5924 24.0977 90.7617 23.7201 90.7617 23.2773V22.2617C90.7617 21.806 90.5924 21.4219 90.2539 21.1094C89.9284 20.7969 89.5312 20.6406 89.0625 20.6406H81.6797C80.612 20.6406 79.6354 20.3867 78.75 19.8789C77.8776 19.3581 77.1745 18.668 76.6406 17.8086C76.1198 16.9362 75.8594 15.9792 75.8594 14.9375V14.4492ZM99.375 12.9453C99.375 11.7865 99.7982 10.8034 100.645 9.99609C101.491 9.17578 102.507 8.76562 103.691 8.76562H112.129C113.21 8.76562 114.186 9.03255 115.059 9.56641C115.944 10.0872 116.647 10.7969 117.168 11.6953C117.702 12.5807 117.969 13.5638 117.969 14.6445V15.2109C117.969 16.2786 117.702 17.2552 117.168 18.1406C116.647 19.013 115.944 19.7161 115.059 20.25C114.186 20.7708 113.21 21.0312 112.129 21.0312H105.84V16.9297H112.168C112.637 16.9297 113.034 16.7604 113.359 16.4219C113.698 16.0833 113.867 15.6732 113.867 15.1914V14.6445C113.867 14.1497 113.698 13.7331 113.359 13.3945C113.034 13.056 112.637 12.8867 112.168 12.8867H103.496V23.2773C103.496 23.7201 103.646 24.0977 103.945 24.4102C104.245 24.7227 104.609 24.8789 105.039 24.8789H116.543V29H105.039C103.997 29 103.047 28.7461 102.188 28.2383C101.328 27.7174 100.645 27.0273 100.137 26.168C99.6289 25.2956 99.375 24.3385 99.375 23.2969V12.9453ZM122.461 7.94531C122.461 6.70833 122.767 5.58203 123.379 4.56641C124.004 3.55078 124.837 2.74349 125.879 2.14453C126.934 1.53255 128.092 1.22656 129.355 1.22656H143.73V5.32812H129.355C128.6 5.32812 127.949 5.59505 127.402 6.12891C126.855 6.66276 126.582 7.30729 126.582 8.0625V9.97656C126.582 10.6667 126.855 11.2591 127.402 11.7539C127.949 12.2487 128.6 12.4961 129.355 12.4961H138.203C139.479 12.4961 140.638 12.8021 141.68 13.4141C142.721 14.013 143.548 14.8268 144.16 15.8555C144.785 16.8711 145.098 17.9974 145.098 19.2344V22.2617C145.098 23.4987 144.785 24.6315 144.16 25.6602C143.548 26.6758 142.721 27.4896 141.68 28.1016C140.638 28.7005 139.479 29 138.203 29H122.48V24.8789H138.203C138.971 24.8789 139.622 24.625 140.156 24.1172C140.703 23.5964 140.977 22.9714 140.977 22.2422V19.2539C140.977 18.5247 140.703 17.8997 140.156 17.3789C139.622 16.8581 138.971 16.5977 138.203 16.5977H129.355C128.092 16.5977 126.934 16.3047 125.879 15.7188C124.837 15.1198 124.004 14.319 123.379 13.3164C122.767 12.3138 122.461 11.207 122.461 9.99609V7.94531ZM149.805 1.22656H153.926V8.76562H160.293C161.699 8.76562 162.975 9.09766 164.121 9.76172C165.28 10.4128 166.198 11.2917 166.875 12.3984C167.565 13.4922 167.91 14.7096 167.91 16.0508V29H163.789V16.1094C163.789 15.25 163.438 14.5013 162.734 13.8633C162.044 13.2122 161.23 12.8867 160.293 12.8867H153.926V29H149.805V1.22656ZM172.148 3.25781C172.148 2.55469 172.396 1.95573 172.891 1.46094C173.385 0.966146 173.984 0.71875 174.688 0.71875C175.391 0.71875 175.99 0.966146 176.484 1.46094C176.979 1.95573 177.227 2.55469 177.227 3.25781C177.227 3.96094 176.979 4.5599 176.484 5.05469C175.99 5.54948 175.391 5.79688 174.688 5.79688C173.984 5.79688 173.385 5.54948 172.891 5.05469C172.396 4.5599 172.148 3.96094 172.148 3.25781ZM172.617 8.76562H176.758V29H172.617V8.76562ZM181.445 7.02734C181.445 5.95964 181.706 4.98958 182.227 4.11719C182.76 3.23177 183.464 2.52865 184.336 2.00781C185.221 1.48698 186.198 1.22656 187.266 1.22656H191.777V5.32812H187.266C186.797 5.32812 186.393 5.4974 186.055 5.83594C185.729 6.16146 185.566 6.55859 185.566 7.02734V8.76562H191.855V12.8672H185.566V29H181.445V7.02734ZM194.609 8.76562H197.246V1.22656H201.367V8.76562H207.598V12.8867H201.367V23.2578C201.367 23.7005 201.536 24.0846 201.875 24.4102C202.227 24.7227 202.643 24.8789 203.125 24.8789H207.598V29H203.066C201.999 29 201.022 28.7461 200.137 28.2383C199.264 27.7174 198.561 27.0273 198.027 26.168C197.507 25.2956 197.246 24.332 197.246 23.2773V12.8867H194.609V8.76562Z" fill="black"/>
</svg>
